<svg width="30" height="30" viewBox="0 0 30 30" fill="none" xmlns="http://www.w3.org/2000/svg">
<path d="M14.5212 0.0586024C14.1614 0.124227 13.9569 0.185165 13.667 0.316415C12.8257 0.696102 12.2175 1.46016 12.0622 2.32735C12.0259 2.52657 12.0259 13.9734 12.0622 14.1727C12.1683 14.7633 12.5022 15.3375 12.9707 15.7383C14.1588 16.7555 15.9992 16.7156 17.1303 15.6469C17.5522 15.2461 17.837 14.7258 17.9379 14.1727C17.9535 14.0789 17.9638 11.9906 17.9638 8.24298C17.9638 2.57579 17.9638 2.45157 17.912 2.23126C17.7179 1.36407 17.1459 0.68204 16.2943 0.300009C16.038 0.182821 15.8465 0.128915 15.466 0.0609461C15.0673 -0.0117101 14.9146 -0.0117101 14.5212 0.0586024Z" fill="white"/>
<path d="M6.49698 5.7539C6.47627 5.75859 6.37015 5.77499 6.26402 5.78906C5.72563 5.86874 5.15876 6.13593 4.75496 6.49921C4.46764 6.75937 3.88266 7.32421 3.67558 7.54453C1.71355 9.62109 0.512511 12.0539 0.142364 14.707C0.0802416 15.1547 0 16.1133 0 16.4062C0 16.6641 0.0724763 17.5523 0.129422 18.0234C0.173425 18.3773 0.302847 19.043 0.401208 19.4344C0.672994 20.5055 1.02761 21.4055 1.57895 22.418C2.12511 23.4187 2.72045 24.2437 3.53581 25.1367C3.8956 25.5281 4.93874 26.4726 5.37101 26.7984C7.81708 28.6336 10.6385 29.6883 13.7446 29.9273C13.9077 29.9414 14.2079 29.9625 14.4124 29.9789C15.321 30.0469 16.9853 29.9062 18.2355 29.6578C23.5884 28.5891 27.9137 24.8953 29.4047 20.1234C29.6066 19.4766 29.7929 18.6305 29.8706 18.0234C29.9275 17.5523 30 16.6641 30 16.4062C30 16.1484 29.9275 15.2578 29.8706 14.7891C29.855 14.6672 29.8059 14.3766 29.7645 14.1445C29.3218 11.7703 28.1984 9.56718 26.4745 7.69921C26.2079 7.40859 25.6773 6.88828 25.6255 6.86718C25.6048 6.85546 25.5582 6.83671 25.522 6.82265C25.4858 6.80859 25.3874 6.74296 25.302 6.67968C24.7351 6.24843 23.8835 6.03281 23.1148 6.12421C21.7325 6.29062 20.6946 7.24687 20.5263 8.50546C20.4047 9.42187 20.8525 10.3664 21.6808 10.9336C22.1959 11.2875 22.9905 12.3773 23.4176 13.3219C23.9068 14.3976 24.1242 15.4734 24.0906 16.6172C24.0621 17.5078 23.9327 18.1781 23.6221 19.0195C22.7265 21.45 20.5651 23.3953 17.8602 24.2039C16.9129 24.4875 16.0354 24.6141 14.9871 24.6141C13.5582 24.6141 12.3003 24.3562 11.0319 23.8008C7.36152 22.1953 5.31924 18.6023 6.02071 14.9883C6.32873 13.4086 7.25539 11.7914 8.47714 10.7109C8.61432 10.5891 8.81881 10.4062 8.93011 10.3078C9.71182 9.61406 9.9862 8.52187 9.62381 7.55859C9.41933 7.01953 8.96376 6.49218 8.43831 6.18281C7.93098 5.88515 7.38481 5.73984 6.79465 5.74453C6.65229 5.74687 6.51769 5.75156 6.49698 5.7539Z" fill="white"/>
</svg>
