<svg width="29" height="29" viewBox="0 0 29 29" fill="none" xmlns="http://www.w3.org/2000/svg">
<path d="M27.8185 0.00261831C21.9623 -0.102382 15.2835 2.95887 11.056 7.70762C7.01604 7.78387 3.08229 9.44012 0.186044 12.3364C0.0172946 12.5026 -0.0427053 12.7514 0.0310447 12.9764C0.106045 13.2026 0.301045 13.3664 0.536044 13.4001L5.35354 14.0901L4.75854 14.7564C4.53729 15.0039 4.54854 15.3801 4.78354 15.6151L12.8173 23.6489C12.9385 23.7701 13.0985 23.8314 13.2598 23.8314C13.4085 23.8314 13.5573 23.7789 13.676 23.6726L14.3423 23.0776L15.0323 27.8951C15.066 28.1301 15.251 28.3026 15.4748 28.3776C15.5323 28.3964 15.5923 28.4051 15.6535 28.4051C15.831 28.4051 16.0123 28.3276 16.1373 28.2039C18.9935 25.3476 20.6498 21.4139 20.726 17.3739C25.4798 13.1376 28.566 6.46137 28.4298 0.612618C28.421 0.280118 28.1523 0.0113683 27.8185 0.00261831ZM22.0585 10.7926C21.4498 11.4014 20.6498 11.7064 19.8485 11.7064C19.0473 11.7064 18.2473 11.4014 17.6385 10.7926C16.421 9.57387 16.421 7.59137 17.6385 6.37262C18.8573 5.15387 20.8398 5.15387 22.0585 6.37262C23.2773 7.59137 23.2773 9.57512 22.0585 10.7926Z" fill="#062863"/>
</svg>
