<svg width="30" height="30" viewBox="0 0 30 30" fill="none" xmlns="http://www.w3.org/2000/svg">
<path d="M13.5548 30C21.0028 30 27.0406 23.9622 27.0406 16.5142C27.0406 14.2225 26.4708 12.0661 25.4635 10.1774C25.3533 10.1931 25.2399 10.1994 25.1298 10.1994C25.0668 10.1994 25.0007 10.1963 24.9346 10.1931L23.219 10.0609L21.985 11.2949C22.9262 12.8122 23.4708 14.6002 23.4708 16.5142C23.4708 21.9885 19.0322 26.4271 13.5579 26.4271C8.08363 26.4271 3.64184 21.9885 3.64184 16.5142C3.64184 11.0399 8.08045 6.60129 13.5547 6.60129C15.4719 6.60129 17.2599 7.14589 18.774 8.08713L19.8915 6.9696L19.7405 5.00213C19.7279 4.84474 19.731 4.68734 19.7467 4.53309C17.8926 3.57296 15.7866 3.02837 13.5516 3.02837C6.10668 3.02837 0.0689087 9.06614 0.0689087 16.5142C0.0689087 23.9622 6.10672 30 13.5548 30Z" fill="white"/>
<path d="M13.5548 13.0294C13.6429 13.0294 13.7311 13.0326 13.8192 13.0388L16.3092 10.5488L16.3627 10.4953C15.5096 10.0955 14.559 9.87198 13.5547 9.87198C9.88738 9.87198 6.91571 12.8436 6.91571 16.511C6.91571 20.1784 9.88738 23.1532 13.5547 23.1532C17.2221 23.1532 20.1938 20.1815 20.1938 16.5142C20.1938 15.51 19.9702 14.5593 19.5705 13.7062L19.517 13.7597L17.0269 16.2497C17.0332 16.3379 17.0364 16.426 17.0364 16.5141C17.0364 18.4375 15.4781 19.9989 13.5516 19.9989C11.625 19.9989 10.0699 18.4375 10.0699 16.5141C10.07 14.5908 11.6314 13.0294 13.5548 13.0294Z" fill="white"/>
<path d="M27.453 4.48898L28.2526 3.6894C28.6177 3.32424 28.6177 2.73557 28.2526 2.37041L27.6985 1.81322C27.5159 1.63064 27.2767 1.53935 27.0406 1.53935C26.8045 1.53935 26.5621 1.63064 26.3827 1.81322L25.4666 2.72928L25.2778 0.289612C25.2652 0.110178 25.1172 0 24.963 0C24.8843 0 24.8056 0.0283316 24.7426 0.0912907L21.1382 3.6957C20.8139 4.01994 20.6471 4.47009 20.6818 4.9297L20.6912 5.07135L20.8643 7.32844L19.561 8.63169L17.2158 10.9769L17.1623 11.0304L14.8927 13.3001L13.8853 14.3075C13.7531 14.4397 13.6713 14.616 13.6587 14.8017L13.5957 15.5918C13.5579 16.0514 13.9231 16.4418 14.3795 16.4418C14.3921 16.4418 14.4047 16.4418 14.4205 16.4418L15.2547 16.4008C15.4498 16.3914 15.6356 16.3095 15.7709 16.171L16.7688 15.1731L19.0385 12.9035L19.0921 12.8499L21.4373 10.5047L22.8539 9.08814L24.9126 9.24554L25.0039 9.25184C25.0448 9.25498 25.0857 9.25498 25.1235 9.25498C25.539 9.25498 25.9388 9.09129 26.2379 8.79538L29.8391 5.19412C30.028 5.00525 29.9084 4.67786 29.6408 4.65897L27.453 4.48898Z" fill="white"/>
</svg>
